<svg width="328" height="178" viewBox="0 0 328 178" fill="none" xmlns="http://www.w3.org/2000/svg">
<path opacity="0.7" d="M2.688 132.032V135.76H6.752V136.96H2.688V140.8H7.232V142H1.232V130.832H7.232V132.032H2.688ZM17.2111 133.232V142H15.7551V140.704C15.4778 141.152 15.0885 141.504 14.5871 141.76C14.0965 142.005 13.5525 142.128 12.9551 142.128C12.2725 142.128 11.6591 141.989 11.1151 141.712C10.5711 141.424 10.1391 140.997 9.81913 140.432C9.50979 139.867 9.35513 139.179 9.35513 138.368V133.232H10.7951V138.176C10.7951 139.04 11.0138 139.707 11.4511 140.176C11.8885 140.635 12.4858 140.864 13.2431 140.864C14.0218 140.864 14.6351 140.624 15.0831 140.144C15.5311 139.664 15.7551 138.965 15.7551 138.048V133.232H17.2111ZM20.4215 131.808C20.1442 131.808 19.9095 131.712 19.7175 131.52C19.5255 131.328 19.4295 131.093 19.4295 130.816C19.4295 130.539 19.5255 130.304 19.7175 130.112C19.9095 129.92 20.1442 129.824 20.4215 129.824C20.6882 129.824 20.9122 129.92 21.0935 130.112C21.2855 130.304 21.3815 130.539 21.3815 130.816C21.3815 131.093 21.2855 131.328 21.0935 131.52C20.9122 131.712 20.6882 131.808 20.4215 131.808ZM21.1255 133.232V142H19.6695V133.232H21.1255ZM26.711 142.144C26.039 142.144 25.4363 142.032 24.903 141.808C24.3697 141.573 23.9483 141.253 23.639 140.848C23.3297 140.432 23.159 139.957 23.127 139.424H24.631C24.6737 139.861 24.8763 140.219 25.239 140.496C25.6123 140.773 26.0977 140.912 26.695 140.912C27.2497 140.912 27.687 140.789 28.007 140.544C28.327 140.299 28.487 139.989 28.487 139.616C28.487 139.232 28.3163 138.949 27.975 138.768C27.6337 138.576 27.1057 138.389 26.391 138.208C25.7403 138.037 25.207 137.867 24.791 137.696C24.3857 137.515 24.0337 137.253 23.735 136.912C23.447 136.56 23.303 136.101 23.303 135.536C23.303 135.088 23.4363 134.677 23.703 134.304C23.9697 133.931 24.3483 133.637 24.839 133.424C25.3297 133.2 25.8897 133.088 26.519 133.088C27.4897 133.088 28.2737 133.333 28.871 133.824C29.4683 134.315 29.7883 134.987 29.831 135.84H28.375C28.343 135.381 28.1563 135.013 27.815 134.736C27.4843 134.459 27.0363 134.32 26.471 134.32C25.9483 134.32 25.5323 134.432 25.223 134.656C24.9137 134.88 24.759 135.173 24.759 135.536C24.759 135.824 24.8497 136.064 25.031 136.256C25.223 136.437 25.4577 136.587 25.735 136.704C26.023 136.811 26.4177 136.933 26.919 137.072C27.5483 137.243 28.0603 137.413 28.455 137.584C28.8497 137.744 29.1857 137.989 29.463 138.32C29.751 138.651 29.9003 139.083 29.911 139.616C29.911 140.096 29.7777 140.528 29.511 140.912C29.2443 141.296 28.8657 141.6 28.375 141.824C27.895 142.037 27.3403 142.144 26.711 142.144ZM42.5104 133.072C43.193 133.072 43.801 133.216 44.3344 133.504C44.8677 133.781 45.289 134.203 45.5984 134.768C45.9077 135.333 46.0624 136.021 46.0624 136.832V142H44.6224V137.04C44.6224 136.165 44.4037 135.499 43.9664 135.04C43.5397 134.571 42.9584 134.336 42.2224 134.336C41.465 134.336 40.8624 134.581 40.4144 135.072C39.9664 135.552 39.7424 136.251 39.7424 137.168V142H38.3024V137.04C38.3024 136.165 38.0837 135.499 37.6464 135.04C37.2197 134.571 36.6384 134.336 35.9024 134.336C35.145 134.336 34.5424 134.581 34.0944 135.072C33.6464 135.552 33.4224 136.251 33.4224 137.168V142H31.9664V133.232H33.4224V134.496C33.7104 134.037 34.0944 133.685 34.5744 133.44C35.065 133.195 35.6037 133.072 36.1904 133.072C36.9264 133.072 37.577 133.237 38.1424 133.568C38.7077 133.899 39.129 134.384 39.4064 135.024C39.6517 134.405 40.057 133.925 40.6224 133.584C41.1877 133.243 41.817 133.072 42.5104 133.072ZM52.2748 142.144C51.4534 142.144 50.7068 141.957 50.0348 141.584C49.3734 141.211 48.8508 140.683 48.4668 140C48.0934 139.307 47.9068 138.507 47.9068 137.6C47.9068 136.704 48.0988 135.915 48.4828 135.232C48.8774 134.539 49.4108 134.011 50.0828 133.648C50.7548 133.275 51.5068 133.088 52.3388 133.088C53.1708 133.088 53.9228 133.275 54.5948 133.648C55.2668 134.011 55.7948 134.533 56.1788 135.216C56.5734 135.899 56.7708 136.693 56.7708 137.6C56.7708 138.507 56.5681 139.307 56.1628 140C55.7681 140.683 55.2294 141.211 54.5468 141.584C53.8641 141.957 53.1068 142.144 52.2748 142.144ZM52.2748 140.864C52.7974 140.864 53.2881 140.741 53.7468 140.496C54.2054 140.251 54.5734 139.883 54.8508 139.392C55.1388 138.901 55.2828 138.304 55.2828 137.6C55.2828 136.896 55.1441 136.299 54.8668 135.808C54.5894 135.317 54.2268 134.955 53.7788 134.72C53.3308 134.475 52.8454 134.352 52.3228 134.352C51.7894 134.352 51.2988 134.475 50.8508 134.72C50.4134 134.955 50.0614 135.317 49.7948 135.808C49.5281 136.299 49.3948 136.896 49.3948 137.6C49.3948 138.315 49.5228 138.917 49.7788 139.408C50.0454 139.899 50.3974 140.267 50.8348 140.512C51.2721 140.747 51.7521 140.864 52.2748 140.864ZM58.1411 137.584C58.1411 136.688 58.3225 135.904 58.6851 135.232C59.0478 134.549 59.5438 134.021 60.1731 133.648C60.8131 133.275 61.5278 133.088 62.3171 133.088C62.9998 133.088 63.6345 133.248 64.2211 133.568C64.8078 133.877 65.2558 134.288 65.5651 134.8V130.16H67.0371V142H65.5651V140.352C65.2771 140.875 64.8505 141.307 64.2851 141.648C63.7198 141.979 63.0585 142.144 62.3011 142.144C61.5225 142.144 60.8131 141.952 60.1731 141.568C59.5438 141.184 59.0478 140.645 58.6851 139.952C58.3225 139.259 58.1411 138.469 58.1411 137.584ZM65.5651 137.6C65.5651 136.939 65.4318 136.363 65.1651 135.872C64.8985 135.381 64.5358 135.008 64.0771 134.752C63.6291 134.485 63.1331 134.352 62.5891 134.352C62.0451 134.352 61.5491 134.48 61.1011 134.736C60.6531 134.992 60.2958 135.365 60.0291 135.856C59.7625 136.347 59.6291 136.923 59.6291 137.584C59.6291 138.256 59.7625 138.843 60.0291 139.344C60.2958 139.835 60.6531 140.213 61.1011 140.48C61.5491 140.736 62.0451 140.864 62.5891 140.864C63.1331 140.864 63.6291 140.736 64.0771 140.48C64.5358 140.213 64.8985 139.835 65.1651 139.344C65.4318 138.843 65.5651 138.261 65.5651 137.6ZM77.3313 134.432H75.4913V142H74.0353V134.432H72.8993V133.232H74.0353V132.608C74.0353 131.627 74.2859 130.912 74.7873 130.464C75.2993 130.005 76.1153 129.776 77.2352 129.776V130.992C76.5953 130.992 76.1419 131.12 75.8753 131.376C75.6193 131.621 75.4913 132.032 75.4913 132.608V133.232H77.3313V134.432ZM78.4849 137.584C78.4849 136.688 78.6662 135.904 79.0289 135.232C79.3915 134.549 79.8875 134.021 80.5169 133.648C81.1569 133.275 81.8662 133.088 82.6449 133.088C83.4129 133.088 84.0795 133.253 84.6449 133.584C85.2102 133.915 85.6315 134.331 85.9089 134.832V133.232H87.3809V142H85.9089V140.368C85.6209 140.88 85.1889 141.307 84.6129 141.648C84.0475 141.979 83.3862 142.144 82.6289 142.144C81.8502 142.144 81.1462 141.952 80.5169 141.568C79.8875 141.184 79.3915 140.645 79.0289 139.952C78.6662 139.259 78.4849 138.469 78.4849 137.584ZM85.9089 137.6C85.9089 136.939 85.7755 136.363 85.5089 135.872C85.2422 135.381 84.8795 135.008 84.4209 134.752C83.9729 134.485 83.4769 134.352 82.9329 134.352C82.3889 134.352 81.8929 134.48 81.4449 134.736C80.9969 134.992 80.6395 135.365 80.3729 135.856C80.1062 136.347 79.9729 136.923 79.9729 137.584C79.9729 138.256 80.1062 138.843 80.3729 139.344C80.6395 139.835 80.9969 140.213 81.4449 140.48C81.8929 140.736 82.3889 140.864 82.9329 140.864C83.4769 140.864 83.9729 140.736 84.4209 140.48C84.8795 140.213 85.2422 139.835 85.5089 139.344C85.7755 138.843 85.9089 138.261 85.9089 137.6ZM97.6174 133.232V142H96.1614V140.704C95.884 141.152 95.4947 141.504 94.9934 141.76C94.5027 142.005 93.9587 142.128 93.3614 142.128C92.6787 142.128 92.0654 141.989 91.5214 141.712C90.9774 141.424 90.5454 140.997 90.2254 140.432C89.916 139.867 89.7614 139.179 89.7614 138.368V133.232H91.2014V138.176C91.2014 139.04 91.42 139.707 91.8574 140.176C92.2947 140.635 92.892 140.864 93.6494 140.864C94.428 140.864 95.0414 140.624 95.4894 140.144C95.9374 139.664 96.1614 138.965 96.1614 138.048V133.232H97.6174ZM99.5318 137.6C99.5318 136.693 99.7131 135.904 100.076 135.232C100.438 134.549 100.94 134.021 101.58 133.648C102.23 133.275 102.972 133.088 103.804 133.088C104.881 133.088 105.766 133.349 106.46 133.872C107.164 134.395 107.628 135.12 107.852 136.048H106.284C106.134 135.515 105.841 135.093 105.404 134.784C104.977 134.475 104.444 134.32 103.804 134.32C102.972 134.32 102.3 134.608 101.788 135.184C101.276 135.749 101.02 136.555 101.02 137.6C101.02 138.656 101.276 139.472 101.788 140.048C102.3 140.624 102.972 140.912 103.804 140.912C104.444 140.912 104.977 140.763 105.404 140.464C105.83 140.165 106.124 139.739 106.284 139.184H107.852C107.617 140.08 107.148 140.8 106.444 141.344C105.74 141.877 104.86 142.144 103.804 142.144C102.972 142.144 102.23 141.957 101.58 141.584C100.94 141.211 100.438 140.683 100.076 140C99.7131 139.317 99.5318 138.517 99.5318 137.6ZM110.547 131.808C110.269 131.808 110.035 131.712 109.843 131.52C109.651 131.328 109.555 131.093 109.555 130.816C109.555 130.539 109.651 130.304 109.843 130.112C110.035 129.92 110.269 129.824 110.547 129.824C110.813 129.824 111.037 129.92 111.219 130.112C111.411 130.304 111.507 130.539 111.507 130.816C111.507 131.093 111.411 131.328 111.219 131.52C111.037 131.712 110.813 131.808 110.547 131.808ZM111.251 133.232V142H109.795V133.232H111.251ZM115.188 134.864C115.487 134.341 115.924 133.915 116.5 133.584C117.076 133.253 117.732 133.088 118.468 133.088C119.257 133.088 119.967 133.275 120.596 133.648C121.225 134.021 121.721 134.549 122.084 135.232C122.447 135.904 122.628 136.688 122.628 137.584C122.628 138.469 122.447 139.259 122.084 139.952C121.721 140.645 121.22 141.184 120.58 141.568C119.951 141.952 119.247 142.144 118.468 142.144C117.711 142.144 117.044 141.979 116.468 141.648C115.903 141.317 115.476 140.896 115.188 140.384V142H113.732V130.16H115.188V134.864ZM121.14 137.584C121.14 136.923 121.007 136.347 120.74 135.856C120.473 135.365 120.111 134.992 119.652 134.736C119.204 134.48 118.708 134.352 118.164 134.352C117.631 134.352 117.135 134.485 116.676 134.752C116.228 135.008 115.865 135.387 115.588 135.888C115.321 136.379 115.188 136.949 115.188 137.6C115.188 138.261 115.321 138.843 115.588 139.344C115.865 139.835 116.228 140.213 116.676 140.48C117.135 140.736 117.631 140.864 118.164 140.864C118.708 140.864 119.204 140.736 119.652 140.48C120.111 140.213 120.473 139.835 120.74 139.344C121.007 138.843 121.14 138.256 121.14 137.584ZM132.321 133.232V142H130.865V140.704C130.587 141.152 130.198 141.504 129.697 141.76C129.206 142.005 128.662 142.128 128.065 142.128C127.382 142.128 126.769 141.989 126.225 141.712C125.681 141.424 125.249 140.997 124.929 140.432C124.619 139.867 124.465 139.179 124.465 138.368V133.232H125.905V138.176C125.905 139.04 126.123 139.707 126.561 140.176C126.998 140.635 127.595 140.864 128.353 140.864C129.131 140.864 129.745 140.624 130.193 140.144C130.641 139.664 130.865 138.965 130.865 138.048V133.232H132.321ZM137.883 142.144C137.211 142.144 136.608 142.032 136.075 141.808C135.542 141.573 135.12 141.253 134.811 140.848C134.502 140.432 134.331 139.957 134.299 139.424H135.803C135.846 139.861 136.048 140.219 136.411 140.496C136.784 140.773 137.27 140.912 137.867 140.912C138.422 140.912 138.859 140.789 139.179 140.544C139.499 140.299 139.659 139.989 139.659 139.616C139.659 139.232 139.488 138.949 139.147 138.768C138.806 138.576 138.278 138.389 137.563 138.208C136.912 138.037 136.379 137.867 135.963 137.696C135.558 137.515 135.206 137.253 134.907 136.912C134.619 136.56 134.475 136.101 134.475 135.536C134.475 135.088 134.608 134.677 134.875 134.304C135.142 133.931 135.52 133.637 136.011 133.424C136.502 133.2 137.062 133.088 137.691 133.088C138.662 133.088 139.446 133.333 140.043 133.824C140.64 134.315 140.96 134.987 141.003 135.84H139.547C139.515 135.381 139.328 135.013 138.987 134.736C138.656 134.459 138.208 134.32 137.643 134.32C137.12 134.32 136.704 134.432 136.395 134.656C136.086 134.88 135.931 135.173 135.931 135.536C135.931 135.824 136.022 136.064 136.203 136.256C136.395 136.437 136.63 136.587 136.907 136.704C137.195 136.811 137.59 136.933 138.091 137.072C138.72 137.243 139.232 137.413 139.627 137.584C140.022 137.744 140.358 137.989 140.635 138.32C140.923 138.651 141.072 139.083 141.083 139.616C141.083 140.096 140.95 140.528 140.683 140.912C140.416 141.296 140.038 141.6 139.547 141.824C139.067 142.037 138.512 142.144 137.883 142.144ZM149.18 134.432V139.6C149.18 140.027 149.271 140.331 149.452 140.512C149.633 140.683 149.948 140.768 150.396 140.768H151.468V142H150.156C149.345 142 148.737 141.813 148.332 141.44C147.927 141.067 147.724 140.453 147.724 139.6V134.432H146.588V133.232H147.724V131.024H149.18V133.232H151.468V134.432H149.18ZM161.008 133.232V142H159.552V140.704C159.275 141.152 158.885 141.504 158.384 141.76C157.893 142.005 157.349 142.128 156.752 142.128C156.069 142.128 155.456 141.989 154.912 141.712C154.368 141.424 153.936 140.997 153.616 140.432C153.307 139.867 153.152 139.179 153.152 138.368V133.232H154.592V138.176C154.592 139.04 154.811 139.707 155.248 140.176C155.685 140.635 156.283 140.864 157.04 140.864C157.819 140.864 158.432 140.624 158.88 140.144C159.328 139.664 159.552 138.965 159.552 138.048V133.232H161.008ZM164.922 134.656C165.178 134.155 165.541 133.765 166.01 133.488C166.49 133.211 167.072 133.072 167.754 133.072V134.576H167.37C165.738 134.576 164.922 135.461 164.922 137.232V142H163.466V133.232H164.922V134.656ZM170.891 134.848C171.179 134.347 171.606 133.931 172.171 133.6C172.747 133.259 173.414 133.088 174.171 133.088C174.95 133.088 175.654 133.275 176.283 133.648C176.923 134.021 177.424 134.549 177.787 135.232C178.15 135.904 178.331 136.688 178.331 137.584C178.331 138.469 178.15 139.259 177.787 139.952C177.424 140.645 176.923 141.184 176.283 141.568C175.654 141.952 174.95 142.144 174.171 142.144C173.424 142.144 172.763 141.979 172.187 141.648C171.622 141.307 171.19 140.885 170.891 140.384V146.16H169.435V133.232H170.891V134.848ZM176.843 137.584C176.843 136.923 176.71 136.347 176.443 135.856C176.176 135.365 175.814 134.992 175.355 134.736C174.907 134.48 174.411 134.352 173.867 134.352C173.334 134.352 172.838 134.485 172.379 134.752C171.931 135.008 171.568 135.387 171.291 135.888C171.024 136.379 170.891 136.949 170.891 137.6C170.891 138.261 171.024 138.843 171.291 139.344C171.568 139.835 171.931 140.213 172.379 140.48C172.838 140.736 173.334 140.864 173.867 140.864C174.411 140.864 174.907 140.736 175.355 140.48C175.814 140.213 176.176 139.835 176.443 139.344C176.71 138.843 176.843 138.256 176.843 137.584ZM181 131.808C180.722 131.808 180.488 131.712 180.296 131.52C180.104 131.328 180.008 131.093 180.008 130.816C180.008 130.539 180.104 130.304 180.296 130.112C180.488 129.92 180.722 129.824 181 129.824C181.266 129.824 181.49 129.92 181.672 130.112C181.864 130.304 181.96 130.539 181.96 130.816C181.96 131.093 181.864 131.328 181.672 131.52C181.49 131.712 181.266 131.808 181 131.808ZM181.704 133.232V142H180.248V133.232H181.704ZM187.289 142.144C186.617 142.144 186.014 142.032 185.481 141.808C184.948 141.573 184.526 141.253 184.217 140.848C183.908 140.432 183.737 139.957 183.705 139.424H185.209C185.252 139.861 185.454 140.219 185.817 140.496C186.19 140.773 186.676 140.912 187.273 140.912C187.828 140.912 188.265 140.789 188.585 140.544C188.905 140.299 189.065 139.989 189.065 139.616C189.065 139.232 188.894 138.949 188.553 138.768C188.212 138.576 187.684 138.389 186.969 138.208C186.318 138.037 185.785 137.867 185.369 137.696C184.964 137.515 184.612 137.253 184.313 136.912C184.025 136.56 183.881 136.101 183.881 135.536C183.881 135.088 184.014 134.677 184.281 134.304C184.548 133.931 184.926 133.637 185.417 133.424C185.908 133.2 186.468 133.088 187.097 133.088C188.068 133.088 188.852 133.333 189.449 133.824C190.046 134.315 190.366 134.987 190.409 135.84H188.953C188.921 135.381 188.734 135.013 188.393 134.736C188.062 134.459 187.614 134.32 187.049 134.32C186.526 134.32 186.11 134.432 185.801 134.656C185.492 134.88 185.337 135.173 185.337 135.536C185.337 135.824 185.428 136.064 185.609 136.256C185.801 136.437 186.036 136.587 186.313 136.704C186.601 136.811 186.996 136.933 187.497 137.072C188.126 137.243 188.638 137.413 189.033 137.584C189.428 137.744 189.764 137.989 190.041 138.32C190.329 138.651 190.478 139.083 190.489 139.616C190.489 140.096 190.356 140.528 190.089 140.912C189.822 141.296 189.444 141.6 188.953 141.824C188.473 142.037 187.918 142.144 187.289 142.144ZM204.81 137.28C204.81 137.557 204.794 137.851 204.762 138.16H197.754C197.807 139.024 198.101 139.701 198.634 140.192C199.178 140.672 199.834 140.912 200.602 140.912C201.231 140.912 201.754 140.768 202.17 140.48C202.597 140.181 202.895 139.787 203.066 139.296H204.634C204.399 140.139 203.93 140.827 203.226 141.36C202.522 141.883 201.647 142.144 200.602 142.144C199.77 142.144 199.023 141.957 198.362 141.584C197.711 141.211 197.199 140.683 196.826 140C196.453 139.307 196.266 138.507 196.266 137.6C196.266 136.693 196.447 135.899 196.81 135.216C197.173 134.533 197.679 134.011 198.33 133.648C198.991 133.275 199.749 133.088 200.602 133.088C201.434 133.088 202.17 133.269 202.81 133.632C203.45 133.995 203.941 134.496 204.282 135.136C204.634 135.765 204.81 136.48 204.81 137.28ZM203.306 136.976C203.306 136.421 203.183 135.947 202.938 135.552C202.693 135.147 202.357 134.843 201.93 134.64C201.514 134.427 201.05 134.32 200.538 134.32C199.802 134.32 199.173 134.555 198.65 135.024C198.138 135.493 197.845 136.144 197.77 136.976H203.306ZM214.508 133.232V142H213.052V140.704C212.775 141.152 212.385 141.504 211.884 141.76C211.393 142.005 210.849 142.128 210.252 142.128C209.569 142.128 208.956 141.989 208.412 141.712C207.868 141.424 207.436 140.997 207.116 140.432C206.807 139.867 206.652 139.179 206.652 138.368V133.232H208.092V138.176C208.092 139.04 208.311 139.707 208.748 140.176C209.185 140.635 209.783 140.864 210.54 140.864C211.319 140.864 211.932 140.624 212.38 140.144C212.828 139.664 213.052 138.965 213.052 138.048V133.232H214.508ZM224.848 133.088C225.605 133.088 226.267 133.253 226.832 133.584C227.408 133.915 227.835 134.331 228.112 134.832V133.232H229.584V142.192C229.584 142.992 229.413 143.701 229.072 144.32C228.731 144.949 228.24 145.44 227.6 145.792C226.971 146.144 226.235 146.32 225.392 146.32C224.24 146.32 223.28 146.048 222.512 145.504C221.744 144.96 221.291 144.219 221.152 143.28H222.592C222.752 143.813 223.083 144.24 223.584 144.56C224.085 144.891 224.688 145.056 225.392 145.056C226.192 145.056 226.843 144.805 227.344 144.304C227.856 143.803 228.112 143.099 228.112 142.192V140.352C227.824 140.864 227.397 141.291 226.832 141.632C226.267 141.973 225.605 142.144 224.848 142.144C224.069 142.144 223.36 141.952 222.72 141.568C222.091 141.184 221.595 140.645 221.232 139.952C220.869 139.259 220.688 138.469 220.688 137.584C220.688 136.688 220.869 135.904 221.232 135.232C221.595 134.549 222.091 134.021 222.72 133.648C223.36 133.275 224.069 133.088 224.848 133.088ZM228.112 137.6C228.112 136.939 227.979 136.363 227.712 135.872C227.445 135.381 227.083 135.008 226.624 134.752C226.176 134.485 225.68 134.352 225.136 134.352C224.592 134.352 224.096 134.48 223.648 134.736C223.2 134.992 222.843 135.365 222.576 135.856C222.309 136.347 222.176 136.923 222.176 137.584C222.176 138.256 222.309 138.843 222.576 139.344C222.843 139.835 223.2 140.213 223.648 140.48C224.096 140.736 224.592 140.864 225.136 140.864C225.68 140.864 226.176 140.736 226.624 140.48C227.083 140.213 227.445 139.835 227.712 139.344C227.979 138.843 228.112 138.261 228.112 137.6ZM233.501 134.656C233.757 134.155 234.119 133.765 234.589 133.488C235.069 133.211 235.65 133.072 236.333 133.072V134.576H235.949C234.317 134.576 233.501 135.461 233.501 137.232V142H232.045V133.232H233.501V134.656ZM237.469 137.584C237.469 136.688 237.651 135.904 238.013 135.232C238.376 134.549 238.872 134.021 239.501 133.648C240.141 133.275 240.851 133.088 241.629 133.088C242.397 133.088 243.064 133.253 243.629 133.584C244.195 133.915 244.616 134.331 244.893 134.832V133.232H246.365V142H244.893V140.368C244.605 140.88 244.173 141.307 243.597 141.648C243.032 141.979 242.371 142.144 241.613 142.144C240.835 142.144 240.131 141.952 239.501 141.568C238.872 141.184 238.376 140.645 238.013 139.952C237.651 139.259 237.469 138.469 237.469 137.584ZM244.893 137.6C244.893 136.939 244.76 136.363 244.493 135.872C244.227 135.381 243.864 135.008 243.405 134.752C242.957 134.485 242.461 134.352 241.917 134.352C241.373 134.352 240.877 134.48 240.429 134.736C239.981 134.992 239.624 135.365 239.357 135.856C239.091 136.347 238.957 136.923 238.957 137.584C238.957 138.256 239.091 138.843 239.357 139.344C239.624 139.835 239.981 140.213 240.429 140.48C240.877 140.736 241.373 140.864 241.917 140.864C242.461 140.864 242.957 140.736 243.405 140.48C243.864 140.213 244.227 139.835 244.493 139.344C244.76 138.843 244.893 138.261 244.893 137.6ZM252.09 140.656L254.81 133.232H256.362L252.922 142H251.226L247.786 133.232H249.354L252.09 140.656ZM258.547 131.808C258.269 131.808 258.035 131.712 257.843 131.52C257.651 131.328 257.555 131.093 257.555 130.816C257.555 130.539 257.651 130.304 257.843 130.112C258.035 129.92 258.269 129.824 258.547 129.824C258.813 129.824 259.037 129.92 259.219 130.112C259.411 130.304 259.507 130.539 259.507 130.816C259.507 131.093 259.411 131.328 259.219 131.52C259.037 131.712 258.813 131.808 258.547 131.808ZM259.251 133.232V142H257.795V133.232H259.251ZM261.188 137.584C261.188 136.688 261.369 135.904 261.732 135.232C262.095 134.549 262.591 134.021 263.22 133.648C263.86 133.275 264.575 133.088 265.364 133.088C266.047 133.088 266.681 133.248 267.268 133.568C267.855 133.877 268.303 134.288 268.612 134.8V130.16H270.084V142H268.612V140.352C268.324 140.875 267.897 141.307 267.332 141.648C266.767 141.979 266.105 142.144 265.348 142.144C264.569 142.144 263.86 141.952 263.22 141.568C262.591 141.184 262.095 140.645 261.732 139.952C261.369 139.259 261.188 138.469 261.188 137.584ZM268.612 137.6C268.612 136.939 268.479 136.363 268.212 135.872C267.945 135.381 267.583 135.008 267.124 134.752C266.676 134.485 266.18 134.352 265.636 134.352C265.092 134.352 264.596 134.48 264.148 134.736C263.7 134.992 263.343 135.365 263.076 135.856C262.809 136.347 262.676 136.923 262.676 137.584C262.676 138.256 262.809 138.843 263.076 139.344C263.343 139.835 263.7 140.213 264.148 140.48C264.596 140.736 265.092 140.864 265.636 140.864C266.18 140.864 266.676 140.736 267.124 140.48C267.583 140.213 267.945 139.835 268.212 139.344C268.479 138.843 268.612 138.261 268.612 137.6ZM272.001 137.584C272.001 136.688 272.182 135.904 272.545 135.232C272.907 134.549 273.403 134.021 274.033 133.648C274.673 133.275 275.382 133.088 276.161 133.088C276.929 133.088 277.595 133.253 278.161 133.584C278.726 133.915 279.147 134.331 279.425 134.832V133.232H280.897V142H279.425V140.368C279.137 140.88 278.705 141.307 278.129 141.648C277.563 141.979 276.902 142.144 276.145 142.144C275.366 142.144 274.662 141.952 274.033 141.568C273.403 141.184 272.907 140.645 272.545 139.952C272.182 139.259 272.001 138.469 272.001 137.584ZM279.425 137.6C279.425 136.939 279.291 136.363 279.025 135.872C278.758 135.381 278.395 135.008 277.937 134.752C277.489 134.485 276.993 134.352 276.449 134.352C275.905 134.352 275.409 134.48 274.961 134.736C274.513 134.992 274.155 135.365 273.889 135.856C273.622 136.347 273.489 136.923 273.489 137.584C273.489 138.256 273.622 138.843 273.889 139.344C274.155 139.835 274.513 140.213 274.961 140.48C275.409 140.736 275.905 140.864 276.449 140.864C276.993 140.864 277.489 140.736 277.937 140.48C278.395 140.213 278.758 139.835 279.025 139.344C279.291 138.843 279.425 138.261 279.425 137.6ZM11.776 161.072C12.4587 161.072 13.0667 161.216 13.6 161.504C14.1333 161.781 14.5547 162.203 14.864 162.768C15.1733 163.333 15.328 164.021 15.328 164.832V170H13.888V165.04C13.888 164.165 13.6693 163.499 13.232 163.04C12.8053 162.571 12.224 162.336 11.488 162.336C10.7307 162.336 10.128 162.581 9.68 163.072C9.232 163.552 9.008 164.251 9.008 165.168V170H7.568V165.04C7.568 164.165 7.34933 163.499 6.912 163.04C6.48533 162.571 5.904 162.336 5.168 162.336C4.41067 162.336 3.808 162.581 3.36 163.072C2.912 163.552 2.688 164.251 2.688 165.168V170H1.232V161.232H2.688V162.496C2.976 162.037 3.36 161.685 3.84 161.44C4.33067 161.195 4.86933 161.072 5.456 161.072C6.192 161.072 6.84267 161.237 7.408 161.568C7.97333 161.899 8.39467 162.384 8.672 163.024C8.91733 162.405 9.32267 161.925 9.888 161.584C10.4533 161.243 11.0827 161.072 11.776 161.072ZM18.4684 159.808C18.191 159.808 17.9564 159.712 17.7644 159.52C17.5724 159.328 17.4764 159.093 17.4764 158.816C17.4764 158.539 17.5724 158.304 17.7644 158.112C17.9564 157.92 18.191 157.824 18.4684 157.824C18.735 157.824 18.959 157.92 19.1404 158.112C19.3324 158.304 19.4284 158.539 19.4284 158.816C19.4284 159.093 19.3324 159.328 19.1404 159.52C18.959 159.712 18.735 159.808 18.4684 159.808ZM19.1724 161.232V170H17.7164V161.232H19.1724ZM22.1179 170.096C21.8405 170.096 21.6059 170 21.4139 169.808C21.2219 169.616 21.1259 169.381 21.1259 169.104C21.1259 168.827 21.2219 168.592 21.4139 168.4C21.6059 168.208 21.8405 168.112 22.1179 168.112C22.3845 168.112 22.6085 168.208 22.7899 168.4C22.9819 168.592 23.0779 168.827 23.0779 169.104C23.0779 169.381 22.9819 169.616 22.7899 169.808C22.6085 170 22.3845 170.096 22.1179 170.096ZM36.7349 162.112C36.7349 163.04 36.4149 163.813 35.7749 164.432C35.1455 165.04 34.1802 165.344 32.8789 165.344H30.7349V170H29.2789V158.848H32.8789C34.1375 158.848 35.0922 159.152 35.7429 159.76C36.4042 160.368 36.7349 161.152 36.7349 162.112ZM32.8789 164.144C33.6895 164.144 34.2869 163.968 34.6709 163.616C35.0549 163.264 35.2469 162.763 35.2469 162.112C35.2469 160.736 34.4575 160.048 32.8789 160.048H30.7349V164.144H32.8789ZM46.5445 165.28C46.5445 165.557 46.5285 165.851 46.4965 166.16H39.4885C39.5418 167.024 39.8352 167.701 40.3685 168.192C40.9125 168.672 41.5685 168.912 42.3365 168.912C42.9658 168.912 43.4885 168.768 43.9045 168.48C44.3312 168.181 44.6298 167.787 44.8005 167.296H46.3685C46.1338 168.139 45.6645 168.827 44.9605 169.36C44.2565 169.883 43.3818 170.144 42.3365 170.144C41.5045 170.144 40.7578 169.957 40.0965 169.584C39.4458 169.211 38.9338 168.683 38.5605 168C38.1872 167.307 38.0005 166.507 38.0005 165.6C38.0005 164.693 38.1818 163.899 38.5445 163.216C38.9072 162.533 39.4138 162.011 40.0645 161.648C40.7258 161.275 41.4832 161.088 42.3365 161.088C43.1685 161.088 43.9045 161.269 44.5445 161.632C45.1845 161.995 45.6752 162.496 46.0165 163.136C46.3685 163.765 46.5445 164.48 46.5445 165.28ZM45.0405 164.976C45.0405 164.421 44.9178 163.947 44.6725 163.552C44.4272 163.147 44.0912 162.843 43.6645 162.64C43.2485 162.427 42.7845 162.32 42.2725 162.32C41.5365 162.32 40.9072 162.555 40.3845 163.024C39.8725 163.493 39.5792 164.144 39.5045 164.976H45.0405ZM49.9224 158.16V170H48.4664V158.16H49.9224ZM53.8599 158.16V170H52.4039V158.16H53.8599ZM64.3414 165.28C64.3414 165.557 64.3254 165.851 64.2934 166.16H57.2854C57.3387 167.024 57.632 167.701 58.1654 168.192C58.7094 168.672 59.3654 168.912 60.1334 168.912C60.7627 168.912 61.2854 168.768 61.7014 168.48C62.128 168.181 62.4267 167.787 62.5974 167.296H64.1654C63.9307 168.139 63.4614 168.827 62.7574 169.36C62.0534 169.883 61.1787 170.144 60.1334 170.144C59.3014 170.144 58.5547 169.957 57.8934 169.584C57.2427 169.211 56.7307 168.683 56.3574 168C55.984 167.307 55.7974 166.507 55.7974 165.6C55.7974 164.693 55.9787 163.899 56.3414 163.216C56.704 162.533 57.2107 162.011 57.8614 161.648C58.5227 161.275 59.28 161.088 60.1334 161.088C60.9654 161.088 61.7014 161.269 62.3414 161.632C62.9814 161.995 63.472 162.496 63.8134 163.136C64.1654 163.765 64.3414 164.48 64.3414 165.28ZM62.8374 164.976C62.8374 164.421 62.7147 163.947 62.4694 163.552C62.224 163.147 61.888 162.843 61.4614 162.64C61.0454 162.427 60.5814 162.32 60.0694 162.32C59.3334 162.32 58.704 162.555 58.1814 163.024C57.6694 163.493 57.376 164.144 57.3014 164.976H62.8374ZM70.5353 161.072C71.6019 161.072 72.4659 161.397 73.1273 162.048C73.7886 162.688 74.1193 163.616 74.1193 164.832V170H72.6793V165.04C72.6793 164.165 72.4606 163.499 72.0233 163.04C71.5859 162.571 70.9886 162.336 70.2313 162.336C69.4633 162.336 68.8499 162.576 68.3913 163.056C67.9433 163.536 67.7193 164.235 67.7193 165.152V170H66.2633V161.232H67.7193V162.48C68.0073 162.032 68.3966 161.685 68.8873 161.44C69.3886 161.195 69.9379 161.072 70.5353 161.072ZM78.2736 162.432V167.6C78.2736 168.027 78.3643 168.331 78.5456 168.512C78.727 168.683 79.0416 168.768 79.4896 168.768H80.5616V170H79.2496C78.439 170 77.831 169.813 77.4256 169.44C77.0203 169.067 76.8176 168.453 76.8176 167.6V162.432H75.6816V161.232H76.8176V159.024H78.2736V161.232H80.5616V162.432H78.2736ZM90.3258 165.28C90.3258 165.557 90.3098 165.851 90.2778 166.16H83.2698C83.3231 167.024 83.6164 167.701 84.1498 168.192C84.6938 168.672 85.3498 168.912 86.1178 168.912C86.7471 168.912 87.2698 168.768 87.6858 168.48C88.1124 168.181 88.4111 167.787 88.5818 167.296H90.1498C89.9151 168.139 89.4458 168.827 88.7418 169.36C88.0378 169.883 87.1631 170.144 86.1178 170.144C85.2858 170.144 84.5391 169.957 83.8778 169.584C83.2271 169.211 82.7151 168.683 82.3418 168C81.9684 167.307 81.7818 166.507 81.7818 165.6C81.7818 164.693 81.9631 163.899 82.3258 163.216C82.6884 162.533 83.1951 162.011 83.8458 161.648C84.5071 161.275 85.2644 161.088 86.1178 161.088C86.9498 161.088 87.6858 161.269 88.3258 161.632C88.9658 161.995 89.4564 162.496 89.7978 163.136C90.1498 163.765 90.3258 164.48 90.3258 165.28ZM88.8218 164.976C88.8218 164.421 88.6991 163.947 88.4538 163.552C88.2084 163.147 87.8724 162.843 87.4458 162.64C87.0298 162.427 86.5658 162.32 86.0538 162.32C85.3178 162.32 84.6884 162.555 84.1658 163.024C83.6538 163.493 83.3604 164.144 83.2858 164.976H88.8218ZM95.3516 170.144C94.6796 170.144 94.077 170.032 93.5436 169.808C93.0103 169.573 92.589 169.253 92.2796 168.848C91.9703 168.432 91.7996 167.957 91.7676 167.424H93.2716C93.3143 167.861 93.517 168.219 93.8796 168.496C94.253 168.773 94.7383 168.912 95.3356 168.912C95.8903 168.912 96.3276 168.789 96.6476 168.544C96.9676 168.299 97.1276 167.989 97.1276 167.616C97.1276 167.232 96.957 166.949 96.6156 166.768C96.2743 166.576 95.7463 166.389 95.0316 166.208C94.381 166.037 93.8476 165.867 93.4316 165.696C93.0263 165.515 92.6743 165.253 92.3756 164.912C92.0876 164.56 91.9436 164.101 91.9436 163.536C91.9436 163.088 92.077 162.677 92.3436 162.304C92.6103 161.931 92.989 161.637 93.4796 161.424C93.9703 161.2 94.5303 161.088 95.1596 161.088C96.1303 161.088 96.9143 161.333 97.5116 161.824C98.109 162.315 98.429 162.987 98.4716 163.84H97.0156C96.9836 163.381 96.797 163.013 96.4556 162.736C96.125 162.459 95.677 162.32 95.1116 162.32C94.589 162.32 94.173 162.432 93.8636 162.656C93.5543 162.88 93.3996 163.173 93.3996 163.536C93.3996 163.824 93.4903 164.064 93.6716 164.256C93.8636 164.437 94.0983 164.587 94.3756 164.704C94.6636 164.811 95.0583 164.933 95.5596 165.072C96.189 165.243 96.701 165.413 97.0956 165.584C97.4903 165.744 97.8263 165.989 98.1036 166.32C98.3916 166.651 98.541 167.083 98.5516 167.616C98.5516 168.096 98.4183 168.528 98.1516 168.912C97.885 169.296 97.5063 169.6 97.0156 169.824C96.5356 170.037 95.981 170.144 95.3516 170.144ZM100.063 165.584C100.063 164.688 100.244 163.904 100.607 163.232C100.97 162.549 101.466 162.021 102.095 161.648C102.735 161.275 103.45 161.088 104.239 161.088C104.996 161.088 105.658 161.259 106.223 161.6C106.799 161.931 107.22 162.341 107.487 162.832V161.232H108.959V174.16H107.487V168.384C107.21 168.875 106.783 169.291 106.207 169.632C105.631 169.973 104.959 170.144 104.191 170.144C103.423 170.144 102.724 169.952 102.095 169.568C101.466 169.184 100.97 168.645 100.607 167.952C100.244 167.259 100.063 166.469 100.063 165.584ZM107.487 165.6C107.487 164.939 107.354 164.363 107.087 163.872C106.82 163.381 106.458 163.008 105.999 162.752C105.551 162.485 105.055 162.352 104.511 162.352C103.967 162.352 103.471 162.48 103.023 162.736C102.575 162.992 102.218 163.365 101.951 163.856C101.684 164.347 101.551 164.923 101.551 165.584C101.551 166.256 101.684 166.843 101.951 167.344C102.218 167.835 102.575 168.213 103.023 168.48C103.471 168.736 103.967 168.864 104.511 168.864C105.055 168.864 105.551 168.736 105.999 168.48C106.458 168.213 106.82 167.835 107.087 167.344C107.354 166.843 107.487 166.261 107.487 165.6ZM119.196 161.232V170H117.74V168.704C117.462 169.152 117.073 169.504 116.572 169.76C116.081 170.005 115.537 170.128 114.94 170.128C114.257 170.128 113.644 169.989 113.1 169.712C112.556 169.424 112.124 168.997 111.804 168.432C111.494 167.867 111.34 167.179 111.34 166.368V161.232H112.78V166.176C112.78 167.04 112.998 167.707 113.436 168.176C113.873 168.635 114.47 168.864 115.228 168.864C116.006 168.864 116.62 168.624 117.068 168.144C117.516 167.664 117.74 166.965 117.74 166.048V161.232H119.196ZM129.654 165.28C129.654 165.557 129.638 165.851 129.606 166.16H122.598C122.651 167.024 122.945 167.701 123.478 168.192C124.022 168.672 124.678 168.912 125.446 168.912C126.075 168.912 126.598 168.768 127.014 168.48C127.441 168.181 127.739 167.787 127.91 167.296H129.478C129.243 168.139 128.774 168.827 128.07 169.36C127.366 169.883 126.491 170.144 125.446 170.144C124.614 170.144 123.867 169.957 123.206 169.584C122.555 169.211 122.043 168.683 121.67 168C121.297 167.307 121.11 166.507 121.11 165.6C121.11 164.693 121.291 163.899 121.654 163.216C122.017 162.533 122.523 162.011 123.174 161.648C123.835 161.275 124.593 161.088 125.446 161.088C126.278 161.088 127.014 161.269 127.654 161.632C128.294 161.995 128.785 162.496 129.126 163.136C129.478 163.765 129.654 164.48 129.654 165.28ZM128.15 164.976C128.15 164.421 128.027 163.947 127.782 163.552C127.537 163.147 127.201 162.843 126.774 162.64C126.358 162.427 125.894 162.32 125.382 162.32C124.646 162.32 124.017 162.555 123.494 163.024C122.982 163.493 122.689 164.144 122.614 164.976H128.15ZM143.841 165.28C143.841 165.557 143.825 165.851 143.793 166.16H136.785C136.839 167.024 137.132 167.701 137.665 168.192C138.209 168.672 138.865 168.912 139.633 168.912C140.263 168.912 140.785 168.768 141.201 168.48C141.628 168.181 141.927 167.787 142.097 167.296H143.665C143.431 168.139 142.961 168.827 142.257 169.36C141.553 169.883 140.679 170.144 139.633 170.144C138.801 170.144 138.055 169.957 137.393 169.584C136.743 169.211 136.231 168.683 135.857 168C135.484 167.307 135.297 166.507 135.297 165.6C135.297 164.693 135.479 163.899 135.841 163.216C136.204 162.533 136.711 162.011 137.361 161.648C138.023 161.275 138.78 161.088 139.633 161.088C140.465 161.088 141.201 161.269 141.841 161.632C142.481 161.995 142.972 162.496 143.313 163.136C143.665 163.765 143.841 164.48 143.841 165.28ZM142.337 164.976C142.337 164.421 142.215 163.947 141.969 163.552C141.724 163.147 141.388 162.843 140.961 162.64C140.545 162.427 140.081 162.32 139.569 162.32C138.833 162.32 138.204 162.555 137.681 163.024C137.169 163.493 136.876 164.144 136.801 164.976H142.337ZM147.539 162.432V167.6C147.539 168.027 147.63 168.331 147.811 168.512C147.993 168.683 148.307 168.768 148.755 168.768H149.827V170H148.515C147.705 170 147.097 169.813 146.691 169.44C146.286 169.067 146.083 168.453 146.083 167.6V162.432H144.947V161.232H146.083V159.024H147.539V161.232H149.827V162.432H147.539ZM159.121 168.656L161.841 161.232H163.393L159.953 170H158.257L154.817 161.232H156.385L159.121 168.656ZM172.826 165.28C172.826 165.557 172.81 165.851 172.778 166.16H165.77C165.823 167.024 166.116 167.701 166.65 168.192C167.194 168.672 167.85 168.912 168.618 168.912C169.247 168.912 169.77 168.768 170.186 168.48C170.612 168.181 170.911 167.787 171.082 167.296H172.65C172.415 168.139 171.946 168.827 171.242 169.36C170.538 169.883 169.663 170.144 168.618 170.144C167.786 170.144 167.039 169.957 166.378 169.584C165.727 169.211 165.215 168.683 164.842 168C164.468 167.307 164.282 166.507 164.282 165.6C164.282 164.693 164.463 163.899 164.826 163.216C165.188 162.533 165.695 162.011 166.346 161.648C167.007 161.275 167.764 161.088 168.618 161.088C169.45 161.088 170.186 161.269 170.826 161.632C171.466 161.995 171.956 162.496 172.298 163.136C172.65 163.765 172.826 164.48 172.826 165.28ZM171.322 164.976C171.322 164.421 171.199 163.947 170.954 163.552C170.708 163.147 170.372 162.843 169.946 162.64C169.53 162.427 169.066 162.32 168.554 162.32C167.818 162.32 167.188 162.555 166.666 163.024C166.154 163.493 165.86 164.144 165.786 164.976H171.322ZM176.204 158.16V170H174.748V158.16H176.204ZM179.437 159.808C179.16 159.808 178.925 159.712 178.733 159.52C178.541 159.328 178.445 159.093 178.445 158.816C178.445 158.539 178.541 158.304 178.733 158.112C178.925 157.92 179.16 157.824 179.437 157.824C179.704 157.824 179.928 157.92 180.109 158.112C180.301 158.304 180.397 158.539 180.397 158.816C180.397 159.093 180.301 159.328 180.109 159.52C179.928 159.712 179.704 159.808 179.437 159.808ZM180.141 161.232V170H178.685V161.232H180.141ZM184.399 162.432V167.6C184.399 168.027 184.489 168.331 184.671 168.512C184.852 168.683 185.167 168.768 185.615 168.768H186.687V170H185.375C184.564 170 183.956 169.813 183.551 169.44C183.145 169.067 182.943 168.453 182.943 167.6V162.432H181.807V161.232H182.943V159.024H184.399V161.232H186.687V162.432H184.399ZM192.172 165.584C192.172 164.688 192.354 163.904 192.716 163.232C193.079 162.549 193.575 162.021 194.204 161.648C194.844 161.275 195.554 161.088 196.332 161.088C197.1 161.088 197.767 161.253 198.332 161.584C198.898 161.915 199.319 162.331 199.596 162.832V161.232H201.068V170H199.596V168.368C199.308 168.88 198.876 169.307 198.3 169.648C197.735 169.979 197.074 170.144 196.316 170.144C195.538 170.144 194.834 169.952 194.204 169.568C193.575 169.184 193.079 168.645 192.716 167.952C192.354 167.259 192.172 166.469 192.172 165.584ZM199.596 165.6C199.596 164.939 199.463 164.363 199.196 163.872C198.93 163.381 198.567 163.008 198.108 162.752C197.66 162.485 197.164 162.352 196.62 162.352C196.076 162.352 195.58 162.48 195.132 162.736C194.684 162.992 194.327 163.365 194.06 163.856C193.794 164.347 193.66 164.923 193.66 165.584C193.66 166.256 193.794 166.843 194.06 167.344C194.327 167.835 194.684 168.213 195.132 168.48C195.58 168.736 196.076 168.864 196.62 168.864C197.164 168.864 197.66 168.736 198.108 168.48C198.567 168.213 198.93 167.835 199.196 167.344C199.463 166.843 199.596 166.261 199.596 165.6ZM204.985 158.16V170H203.529V158.16H204.985ZM208.218 159.808C207.941 159.808 207.706 159.712 207.514 159.52C207.322 159.328 207.226 159.093 207.226 158.816C207.226 158.539 207.322 158.304 207.514 158.112C207.706 157.92 207.941 157.824 208.218 157.824C208.485 157.824 208.709 157.92 208.89 158.112C209.082 158.304 209.178 158.539 209.178 158.816C209.178 159.093 209.082 159.328 208.89 159.52C208.709 159.712 208.485 159.808 208.218 159.808ZM208.922 161.232V170H207.466V161.232H208.922ZM210.86 165.584C210.86 164.688 211.041 163.904 211.404 163.232C211.767 162.549 212.263 162.021 212.892 161.648C213.532 161.275 214.247 161.088 215.036 161.088C215.793 161.088 216.455 161.259 217.02 161.6C217.596 161.931 218.017 162.341 218.284 162.832V161.232H219.756V174.16H218.284V168.384C218.007 168.875 217.58 169.291 217.004 169.632C216.428 169.973 215.756 170.144 214.988 170.144C214.22 170.144 213.521 169.952 212.892 169.568C212.263 169.184 211.767 168.645 211.404 167.952C211.041 167.259 210.86 166.469 210.86 165.584ZM218.284 165.6C218.284 164.939 218.151 164.363 217.884 163.872C217.617 163.381 217.255 163.008 216.796 162.752C216.348 162.485 215.852 162.352 215.308 162.352C214.764 162.352 214.268 162.48 213.82 162.736C213.372 162.992 213.015 163.365 212.748 163.856C212.481 164.347 212.348 164.923 212.348 165.584C212.348 166.256 212.481 166.843 212.748 167.344C213.015 167.835 213.372 168.213 213.82 168.48C214.268 168.736 214.764 168.864 215.308 168.864C215.852 168.864 216.348 168.736 216.796 168.48C217.255 168.213 217.617 167.835 217.884 167.344C218.151 166.843 218.284 166.261 218.284 165.6ZM229.992 161.232V170H228.536V168.704C228.259 169.152 227.87 169.504 227.368 169.76C226.878 170.005 226.334 170.128 225.736 170.128C225.054 170.128 224.44 169.989 223.896 169.712C223.352 169.424 222.92 168.997 222.6 168.432C222.291 167.867 222.136 167.179 222.136 166.368V161.232H223.576V166.176C223.576 167.04 223.795 167.707 224.232 168.176C224.67 168.635 225.267 168.864 226.024 168.864C226.803 168.864 227.416 168.624 227.864 168.144C228.312 167.664 228.536 166.965 228.536 166.048V161.232H229.992ZM231.907 165.584C231.907 164.688 232.088 163.904 232.451 163.232C232.813 162.549 233.309 162.021 233.939 161.648C234.579 161.275 235.288 161.088 236.067 161.088C236.835 161.088 237.501 161.253 238.067 161.584C238.632 161.915 239.053 162.331 239.331 162.832V161.232H240.803V170H239.331V168.368C239.043 168.88 238.611 169.307 238.035 169.648C237.469 169.979 236.808 170.144 236.051 170.144C235.272 170.144 234.568 169.952 233.939 169.568C233.309 169.184 232.813 168.645 232.451 167.952C232.088 167.259 231.907 166.469 231.907 165.584ZM239.331 165.6C239.331 164.939 239.197 164.363 238.931 163.872C238.664 163.381 238.301 163.008 237.843 162.752C237.395 162.485 236.899 162.352 236.355 162.352C235.811 162.352 235.315 162.48 234.867 162.736C234.419 162.992 234.061 163.365 233.795 163.856C233.528 164.347 233.395 164.923 233.395 165.584C233.395 166.256 233.528 166.843 233.795 167.344C234.061 167.835 234.419 168.213 234.867 168.48C235.315 168.736 235.811 168.864 236.355 168.864C236.899 168.864 237.395 168.736 237.843 168.48C238.301 168.213 238.664 167.835 238.931 167.344C239.197 166.843 239.331 166.261 239.331 165.6ZM253.807 161.072C254.49 161.072 255.098 161.216 255.631 161.504C256.165 161.781 256.586 162.203 256.895 162.768C257.205 163.333 257.359 164.021 257.359 164.832V170H255.919V165.04C255.919 164.165 255.701 163.499 255.263 163.04C254.837 162.571 254.255 162.336 253.519 162.336C252.762 162.336 252.159 162.581 251.711 163.072C251.263 163.552 251.039 164.251 251.039 165.168V170H249.599V165.04C249.599 164.165 249.381 163.499 248.943 163.04C248.517 162.571 247.935 162.336 247.199 162.336C246.442 162.336 245.839 162.581 245.391 163.072C244.943 163.552 244.719 164.251 244.719 165.168V170H243.263V161.232H244.719V162.496C245.007 162.037 245.391 161.685 245.871 161.44C246.362 161.195 246.901 161.072 247.487 161.072C248.223 161.072 248.874 161.237 249.439 161.568C250.005 161.899 250.426 162.384 250.703 163.024C250.949 162.405 251.354 161.925 251.919 161.584C252.485 161.243 253.114 161.072 253.807 161.072ZM264.477 170.096C264.2 170.096 263.965 170 263.773 169.808C263.581 169.616 263.485 169.381 263.485 169.104C263.485 168.827 263.581 168.592 263.773 168.4C263.965 168.208 264.2 168.112 264.477 168.112C264.744 168.112 264.968 168.208 265.149 168.4C265.341 168.592 265.437 168.827 265.437 169.104C265.437 169.381 265.341 169.616 265.149 169.808C264.968 170 264.744 170.096 264.477 170.096Z" fill="#282938"/>
<path d="M17.056 94.984C17.056 96.0933 16.7893 97.128 16.256 98.088C15.7227 99.0267 14.912 99.784 13.824 100.36C12.736 100.936 11.4027 101.224 9.824 101.224C8.288 101.224 6.912 100.957 5.696 100.424C4.48 99.8693 3.50933 99.1013 2.784 98.12C2.05867 97.1387 1.64267 96.008 1.536 94.728H5.44C5.54667 95.7093 5.96267 96.552 6.688 97.256C7.43467 97.96 8.42667 98.312 9.664 98.312C10.7733 98.312 11.6267 98.0133 12.224 97.416C12.8427 96.8187 13.152 96.0507 13.152 95.112C13.152 94.3013 12.928 93.64 12.48 93.128C12.032 92.5947 11.4773 92.1787 10.816 91.88C10.1547 91.5813 9.248 91.24 8.096 90.856C6.688 90.408 5.536 89.96 4.64 89.512C3.76533 89.064 3.01867 88.4133 2.4 87.56C1.78133 86.7067 1.472 85.5867 1.472 84.2C1.472 82.984 1.77067 81.9173 2.368 81C2.96533 80.0827 3.81867 79.3787 4.928 78.888C6.03733 78.376 7.31733 78.12 8.768 78.12C11.072 78.12 12.896 78.6747 14.24 79.784C15.6053 80.8933 16.384 82.344 16.576 84.136H12.64C12.4907 83.2827 12.0853 82.5573 11.424 81.96C10.784 81.3413 9.89867 81.032 8.768 81.032C7.744 81.032 6.92267 81.2987 6.304 81.832C5.68533 82.344 5.376 83.0907 5.376 84.072C5.376 84.84 5.58933 85.48 6.016 85.992C6.44267 86.4827 6.976 86.8773 7.616 87.176C8.27733 87.4533 9.17333 87.784 10.304 88.168C11.7333 88.616 12.896 89.0747 13.792 89.544C14.7093 89.992 15.4773 90.6533 16.096 91.528C16.736 92.4027 17.056 93.5547 17.056 94.984ZM29.572 97.832V101H27.332C25.4547 101 24.0253 100.552 23.044 99.656C22.084 98.7387 21.604 97.224 21.604 95.112V86.472H19.076V83.368H21.604V78.984H25.284V83.368H29.54V86.472H25.284V95.176C25.284 96.1787 25.4653 96.872 25.828 97.256C26.212 97.64 26.8733 97.832 27.812 97.832H29.572ZM36.6373 86.824C37.2346 85.672 38.0879 84.7653 39.1973 84.104C40.3066 83.4213 41.5866 83.08 43.0373 83.08V87.048H41.9493C40.3493 87.048 39.0586 87.4427 38.0773 88.232C37.1173 89 36.6373 90.28 36.6373 92.072V101H32.9893V83.368H36.6373V86.824ZM52.8425 83.144C54.4425 83.144 55.8078 83.5387 56.9385 84.328C58.0692 85.1173 58.8692 86.1627 59.3385 87.464V83.368H62.9865V101H59.3385V96.904C58.8692 98.2053 58.0692 99.2507 56.9385 100.04C55.8078 100.829 54.4425 101.224 52.8425 101.224C51.3065 101.224 49.9305 100.861 48.7145 100.136C47.5198 99.4107 46.5812 98.3653 45.8985 97C45.2158 95.6347 44.8745 94.024 44.8745 92.168C44.8745 90.3333 45.2158 88.7333 45.8985 87.368C46.5812 86.0027 47.5198 84.9573 48.7145 84.232C49.9305 83.5067 51.3065 83.144 52.8425 83.144ZM53.9625 86.344C52.3412 86.344 51.0398 86.8667 50.0585 87.912C49.0985 88.936 48.6185 90.3547 48.6185 92.168C48.6185 93.9813 49.0985 95.4107 50.0585 96.456C51.0398 97.48 52.3412 97.992 53.9625 97.992C54.9865 97.992 55.9038 97.7573 56.7145 97.288C57.5252 96.7973 58.1652 96.1147 58.6345 95.24C59.1038 94.3653 59.3385 93.3413 59.3385 92.168C59.3385 91.016 59.1038 90.0027 58.6345 89.128C58.1652 88.232 57.5252 87.5493 56.7145 87.08C55.9038 86.5893 54.9865 86.344 53.9625 86.344ZM76.2283 97.832V101H73.9883C72.1109 101 70.6816 100.552 69.7003 99.656C68.7403 98.7387 68.2603 97.224 68.2603 95.112V86.472H65.7323V83.368H68.2603V78.984H71.9403V83.368H76.1963V86.472H71.9403V95.176C71.9403 96.1787 72.1216 96.872 72.4843 97.256C72.8683 97.64 73.5296 97.832 74.4683 97.832H76.2283ZM96.0295 91.336C96.0295 91.9333 95.9868 92.456 95.9015 92.904H82.3335C82.3975 94.7173 82.8988 96.0613 83.8375 96.936C84.7762 97.8107 85.9388 98.248 87.3255 98.248C88.5415 98.248 89.5655 97.9387 90.3975 97.32C91.2508 96.7013 91.7735 95.88 91.9655 94.856H95.8695C95.6348 96.0933 95.1442 97.192 94.3975 98.152C93.6508 99.112 92.6802 99.8693 91.4855 100.424C90.2908 100.957 88.9575 101.224 87.4855 101.224C85.7788 101.224 84.2642 100.861 82.9415 100.136C81.6402 99.4107 80.6162 98.3653 79.8695 97C79.1228 95.6347 78.7495 94.024 78.7495 92.168C78.7495 90.3333 79.1228 88.7333 79.8695 87.368C80.6162 86.0027 81.6402 84.9573 82.9415 84.232C84.2642 83.5067 85.7788 83.144 87.4855 83.144C89.2135 83.144 90.7175 83.5067 91.9975 84.232C93.2988 84.936 94.2908 85.9173 94.9735 87.176C95.6775 88.4133 96.0295 89.8 96.0295 91.336ZM92.3495 91.24C92.3922 90.088 92.1895 89.128 91.7415 88.36C91.3148 87.5707 90.7175 86.9947 89.9495 86.632C89.2028 86.248 88.3815 86.056 87.4855 86.056C86.0562 86.056 84.8615 86.4933 83.9015 87.368C82.9415 88.2427 82.4188 89.5333 82.3335 91.24H92.3495ZM106.624 83.144C108.224 83.144 109.589 83.5387 110.72 84.328C111.85 85.1173 112.65 86.1627 113.12 87.464V83.368H116.768V101.192C116.768 102.835 116.426 104.285 115.744 105.544C115.082 106.824 114.122 107.827 112.864 108.552C111.605 109.277 110.112 109.64 108.384 109.64C105.909 109.64 103.904 109.053 102.368 107.88C100.853 106.707 99.9038 105.117 99.5198 103.112H103.136C103.434 104.157 104.01 104.968 104.864 105.544C105.717 106.141 106.805 106.44 108.128 106.44C109.578 106.44 110.773 105.992 111.712 105.096C112.65 104.2 113.12 102.899 113.12 101.192V96.904C112.65 98.2053 111.85 99.2507 110.72 100.04C109.589 100.829 108.224 101.224 106.624 101.224C105.088 101.224 103.712 100.861 102.496 100.136C101.301 99.4107 100.362 98.3653 99.6798 97C98.9971 95.6347 98.6558 94.024 98.6558 92.168C98.6558 90.3333 98.9971 88.7333 99.6798 87.368C100.362 86.0027 101.301 84.9573 102.496 84.232C103.712 83.5067 105.088 83.144 106.624 83.144ZM107.744 86.344C106.122 86.344 104.821 86.8667 103.84 87.912C102.88 88.936 102.4 90.3547 102.4 92.168C102.4 93.9813 102.88 95.4107 103.84 96.456C104.821 97.48 106.122 97.992 107.744 97.992C108.768 97.992 109.685 97.7573 110.496 97.288C111.306 96.7973 111.946 96.1147 112.416 95.24C112.885 94.3653 113.12 93.3413 113.12 92.168C113.12 91.016 112.885 90.0027 112.416 89.128C111.946 88.232 111.306 87.5493 110.496 87.08C109.685 86.5893 108.768 86.344 107.744 86.344ZM123.226 83.368L128.506 96.328L133.402 83.368H137.466L126.81 109.384H122.746L126.554 100.584L119.13 83.368H123.226Z" fill="#282938"/>
<rect width="50" height="50" rx="8" fill="#2405F2"/>
<mask id="mask0_706_680" style="mask-type:alpha" maskUnits="userSpaceOnUse" x="0" y="0" width="50" height="50">
<rect width="50" height="50" rx="8" fill="#5C5E84"/>
</mask>
<g mask="url(#mask0_706_680)">
<rect x="-26" y="27" width="50" height="50" rx="8" fill="#FCD980"/>
<rect x="8" y="-9" width="50" height="50" rx="8" fill="#5239FA"/>
</g>
<path d="M15.936 24.556C15.936 26.584 16.296 28.174 17.016 29.326C17.736 30.466 18.936 31.036 20.616 31.036C22.296 31.036 23.496 30.46 24.216 29.308C24.936 28.156 25.296 26.572 25.296 24.556C25.296 22.552 24.936 20.98 24.216 19.84C23.496 18.688 22.296 18.112 20.616 18.112C18.936 18.112 17.736 18.682 17.016 19.822C16.296 20.962 15.936 22.54 15.936 24.556ZM23.244 24.556C23.244 26.02 23.064 27.142 22.704 27.922C22.344 28.702 21.648 29.092 20.616 29.092C19.572 29.092 18.87 28.702 18.51 27.922C18.15 27.142 17.97 26.02 17.97 24.556C17.97 23.104 18.15 21.994 18.51 21.226C18.87 20.458 19.572 20.074 20.616 20.074C21.648 20.074 22.344 20.464 22.704 21.244C23.064 22.012 23.244 23.116 23.244 24.556ZM26.4488 20.218V18.292H30.5168V31H28.3568V20.218H26.4488Z" fill="white"/>
</svg>
